{"title":"The Hobbit The Desolation of Smaug (2013) DVDSCR XviD-MAX","uid":9408580,"size":2056149703,"categoryP":"video","categoryS":"movies","magnet":"?xt=urn:btih:670b10e3842dfe57bedbd0653b09f0548034cbbb&amp;dn=The+Hobbit+The+Desolation+of+Smaug+%282013%29+DVDSCR+XviD-MAX&amp;tr=udp%3A%2F%2Ftracker.openbittorrent.com%3A80&amp;tr=udp%3A%2F%2Fopen.demonii.com%3A1337&amp;tr=udp%3A%2F%2Ftracker.coppersurfer.tk%3A6969&amp;tr=udp%3A%2F%2Fexodus.desync.com%3A6969","seeders":275,"leechers":23,"uploader":"extremezone","files":-1,"time":1388222633,"description":" &lt;a href=&quot;http://img35.imageshack.us/img35/6923/v85z.jpg&quot; rel=&quot;nofollow&quot; target=&quot;_NEW&quot;&gt;http://img35.imageshack.us/img35/6923/v85z.jpg&lt;/a&gt;\n\nScreens:\n &lt;a href=&quot;\nhttp://img51.imageshack.us/img51/2464/mzmb.jpg&quot; rel=&quot;nofollow&quot; target=&quot;_NEW&quot;&gt;\nhttp://img51.imageshack.us/img51/2464/mzmb.jpg&lt;/a&gt; &lt;a href=&quot;\nhttp://img713.imageshack.us/img713/4198/pwm6.jpg&quot; rel=&quot;nofollow&quot; target=&quot;_NEW&quot;&gt;\nhttp://img713.imageshack.us/img713/4198/pwm6.jpg&lt;/a&gt; &lt;a href=&quot;\nhttp://img23.imageshack.us/img23/5789/jwd1.jpg&quot; rel=&quot;nofollow&quot; target=&quot;_NEW&quot;&gt;\nhttp://img23.imageshack.us/img23/5789/jwd1.jpg&lt;/a&gt; &lt;a href=&quot;\nhttp://img268.imageshack.us/img268/7944/xxsw.jpg&quot; rel=&quot;nofollow&quot; target=&quot;_NEW&quot;&gt;\nhttp://img268.imageshack.us/img268/7944/xxsw.jpg&lt;/a&gt;\n\nScreenCaps:\n &lt;a href=&quot;\nhttp://img837.imageshack.us/img837/757/9mp0.jpg&quot; rel=&quot;nofollow&quot; target=&quot;_NEW&quot;&gt;\nhttp://img837.imageshack.us/img837/757/9mp0.jpg&lt;/a&gt;\n\nThe Hobbit The Desolation of Smaug (2013) DVDSCR XviD-MAXSPEED\nFormat                                   : AVI\nFormat/Info                              : Audio Video Interleave\nFormat profile                           : OpenDML\nFormat settings                          : rec\nFile size                                : 1.91 GiB\nDuration                                 : 2h 41mn\nOverall bit rate                         : 1 697 Kbps\nWriting application                      : VirtualDubMod 1.5.10.2 (build 2542/release)\nWriting library                          : VirtualDubMod build 2542/release\nOriginal source form                     : MAX TORRENTZ\nCopyright                                : SIGISMUNT\n\nVideo\nID                                       : 0\nFormat                                   : MPEG-4 Visual\nFormat profile                           : Advanced Simple@L5\nFormat settings, BVOP                    : 2\nFormat settings, QPel                    : Yes\nFormat settings, GMC                     : No warppoints\nFormat settings, Matrix                  : Default (H.263)\nMuxing mode                              : Packed bitstream\nCodec ID                                 : XVID\nCodec ID/Hint                            : XviD\nDuration                                 : 2h 41mn\nBit rate                                 : 1 499 Kbps\nWidth                                    : 636 pixels\nHeight                                   : 264 pixels\nDisplay aspect ratio                     : 2.40:1\nFrame rate                               : 29.970 fps\nColor space                              : YUV\nChroma subsampling                       : 4:2:0\nBit depth                                : 8 bits\nScan type                                : Progressive\nCompression mode                         : Lossy\nBits/(Pixel*Frame)                       : 0.298\nStream size                              : 1.69 GiB (88%)\nWriting library                          : XviD 1.2.1 (UTC 2008-12-04)\n\nAudio\nID                                       : 1\nFormat                                   : AC-3\nFormat/Info                              : Audio Coding 3\nMode extension                           : CM (complete main)\nFormat settings, Endianness              : Big\nCodec ID                                 : 2000\nDuration                                 : 2h 41mn\nBit rate mode                            : Constant\nBit rate                                 : 192 Kbps\nChannel(s)                               : 2 channels\nChannel positions                        : Front: L R\nSampling rate                            : 48.0 KHz\nBit depth                                : 16 bits\nCompression mode                         : Lossy\nStream size                              : 221 MiB (11%)\nAlignment                                : Aligned on interleaves\nInterleave, duration                     : 64 ms (1.92 video frames)\nInterleave, preload duration             : 192 ms\n\nSource: Mother Russia-medium a/v quality,english good synced audio,\nenglish hardcoded subtitles for elf/orc/etc language,sample included\nThis torrent is not seedbox supported,please seed it to the MAX\n\nUploader: Download sample and see if you like quality if not wait for blurayrip\nin about 3 months, Happy Holidays for another year of sharing, thanks for downloading\n\nNote: If you have something to offer as early releases,seedboxes,\ncontact us on &lt;a href=&quot; http://torentz.3xforum.ro&quot; rel=&quot;nofollow&quot; target=&quot;_NEW&quot;&gt; http://torentz.3xforum.ro&lt;/a&gt; or &lt;a href=&quot; http://torentz.tk&quot; rel=&quot;nofollow&quot; target=&quot;_NEW&quot;&gt; http://torentz.tk&lt;/a&gt;\n\nThe Hobbit The Desolation of Smaug (2013) DVDSCR XviD-MAX Torrent Free Download\n\nHow To Get Your MAXSPEED (uTorrent)\n\nTorrent Client - Preferences - Bandwidth - Number of connections - Set aprox. 500 for each\nTorrent Client - Preferences - BiTorrent - Protocol Encryption - Forced\nBandwidth Allocation - High (Set download/upload limit - Unlimited)\nStop Other Active Torrents - Start downloading and wait for connections.\nEnjoy and Seed for at least 1:1 ratio. Don't forget to say thanks/leave reviews.\nIf screens/Caps image host is dead google search &quot;release name&quot;&quot;screens&quot; or &quot;sample&quot;.\nGreets to all actual/future p2p/scene QUALITY groups and affiliate websites.\nDon't trust IMDb robot or bad ratings,always watch some trailers first.\nIgnore stupid comments/fake/mislabeled/no-DVDrips/CAM/TS/RAR uploads.\nPlease spread this release/torrent to your friends/forums/etc.\nIf you need translation subs visit some subtitles sites.\nReport if you see online streaming or other spam links.\nRecommended movie player VLC PLAYER.","torrent":{"xt":"urn:btih:670b10e3842dfe57bedbd0653b09f0548034cbbb","amp;dn":"The+Hobbit+The+Desolation+of+Smaug+%282013%29+DVDSCR+XviD-MAX","amp;tr":["udp%3A%2F%2Ftracker.openbittorrent.com%3A80","udp%3A%2F%2Fopen.demonii.com%3A1337","udp%3A%2F%2Ftracker.coppersurfer.tk%3A6969","udp%3A%2F%2Fexodus.desync.com%3A6969"],"infoHash":"670b10e3842dfe57bedbd0653b09f0548034cbbb","infoHashBuffer":{"type":"Buffer","data":[103,11,16,227,132,45,254,87,190,219,208,101,59,9,240,84,128,52,203,187]},"announce":[],"urlList":[]}}